<?xml version="1.0" standalone="no"?>
<!DOCTYPE svg PUBLIC "-//W3C//DTD SVG 20010904//EN"
 "http://www.w3.org/TR/2001/REC-SVG-20010904/DTD/svg10.dtd">
<svg version="1.0" xmlns="http://www.w3.org/2000/svg"
 width="2352.000000pt" height="2352.000000pt" viewBox="0 0 2352.000000 2352.000000"
 preserveAspectRatio="xMidYMid meet">
<metadata>
Created by potrace 1.14, written by Peter Selinger 2001-2017
</metadata>
<g transform="translate(0.000000,2352.000000) scale(0.100000,-0.100000)"
fill="#000000" stroke="none">
<path d="M15109 23506 c-2 -2 -44 -7 -93 -11 -49 -4 -98 -8 -110 -10 -11 -2
-43 -6 -71 -10 -102 -13 -167 -25 -384 -71 -47 -10 -218 -67 -316 -106 -979
-389 -1719 -1276 -1911 -2293 -9 -49 -18 -99 -20 -110 -9 -56 -14 -95 -19
-149 -4 -32 -8 -73 -10 -90 -10 -76 -17 -210 -17 -311 1 -338 56 -632 191
-1001 158 -439 501 -1052 829 -1489 79 -104 258 -331 279 -353 7 -7 29 -34 50
-60 21 -26 41 -49 44 -52 3 -3 45 -52 93 -110 83 -99 169 -200 191 -224 6 -6
23 -27 39 -46 24 -29 53 -62 161 -184 265 -298 674 -712 1010 -1021 22 -21 79
-76 127 -122 94 -92 91 -91 138 -43 8 8 62 56 120 105 127 109 276 252 551
530 233 235 361 369 484 505 32 36 74 83 94 105 43 47 176 199 206 234 11 13
34 40 52 60 25 29 250 299 322 386 347 427 638 874 856 1318 217 445 328 785
372 1147 15 125 9 473 -11 675 -2 17 -7 65 -10 107 -4 43 -9 88 -11 100 -2 13
-6 46 -10 73 -24 194 -143 543 -277 809 -74 148 -223 390 -290 471 -9 11 -45
56 -79 100 -64 80 -294 316 -380 391 -271 232 -585 420 -919 552 -146 58 -424
138 -535 156 -16 2 -59 9 -95 15 -36 6 -83 13 -105 17 -46 7 -529 16 -536 10z
m371 -1371 c140 -23 291 -71 415 -130 418 -200 725 -617 790 -1072 3 -18 8
-50 11 -70 7 -48 7 -262 0 -294 -3 -13 -8 -44 -11 -69 -8 -68 -13 -90 -41
-186 -109 -379 -370 -692 -730 -876 -111 -57 -298 -121 -385 -133 -24 -3 -66
-8 -94 -12 -63 -9 -262 -9 -335 0 -413 48 -789 280 -1025 632 -150 224 -236
504 -238 780 -1 62 9 199 18 248 3 15 7 38 9 52 18 100 77 261 142 384 187
354 517 614 909 716 50 13 85 20 180 34 55 9 329 6 385 -4z"/>
<path d="M1430 21884 c-118 -19 -114 -18 -219 -48 -573 -166 -1010 -693 -1079
-1301 -9 -80 -9 -18353 0 -18430 81 -692 582 -1222 1274 -1349 12 -3 57 -8
100 -12 92 -8 4107 -10 4120 -1 7 4 11 834 5 982 -1 20 -3 20 -2003 21 -1102
0 -2025 3 -2053 6 -161 20 -309 129 -383 281 -23 45 -46 109 -51 141 -15 85
-15 18208 0 18292 22 122 106 254 209 328 68 49 100 64 177 82 62 15 516 16
4903 17 l4835 2 11 80 c6 44 15 98 19 120 3 22 9 54 12 70 8 49 43 208 48 215
2 4 7 21 10 38 11 66 101 343 150 465 7 16 -233 17 -4996 16 -4153 -1 -5018
-4 -5089 -15z"/>
<path d="M19040 21856 c87 -204 190 -589 216 -806 4 -30 8 -62 10 -70 1 -8 3
-31 3 -52 l1 -36 1328 0 c730 0 1343 -3 1362 -7 155 -27 304 -141 373 -285 20
-41 41 -104 47 -140 8 -47 10 -2619 8 -9180 -3 -8996 -3 -9116 -22 -9170 -61
-172 -209 -310 -376 -351 -45 -10 -417 -13 -2000 -13 l-1945 -1 -2 -503 c-1
-461 0 -502 15 -503 107 -5 3906 0 3957 5 460 46 867 293 1134 688 117 174
217 454 239 672 9 93 9 18363 0 18438 -9 66 -35 200 -48 243 -105 340 -276
590 -545 799 -200 156 -386 237 -695 303 -19 4 -720 8 -1557 10 l-1523 4 20
-45z"/>
<path d="M3623 18989 c-301 -66 -523 -309 -564 -618 -6 -50 -9 -1643 -7 -4581
3 -4294 4 -4508 21 -4565 57 -191 180 -358 326 -445 78 -46 197 -88 278 -97
32 -4 920 -7 1973 -6 1910 0 1915 0 1972 21 52 19 125 66 187 120 109 97 186
166 241 217 35 33 69 65 76 70 6 6 73 69 150 141 76 72 157 148 179 169 22 20
103 97 180 170 77 73 156 147 175 165 225 206 348 333 352 360 6 37 -14 85
-41 99 -28 15 -103 14 -170 -3 -63 -17 -81 -20 -201 -41 -86 -14 -141 -21
-260 -31 -36 -3 -947 -5 -2025 -6 l-1960 0 0 3713 0 3714 1705 -1 c1488 0
1836 -4 1950 -19 14 -2 48 -6 75 -9 28 -4 57 -8 65 -11 8 -2 34 -7 57 -10 114
-16 285 -71 408 -132 342 -170 534 -501 582 -1008 10 -104 10 -401 0 -490 -27
-237 -99 -443 -218 -623 -76 -115 -84 -136 -75 -186 12 -64 56 -86 239 -121
15 -3 39 -7 55 -10 198 -40 632 -171 879 -267 113 -44 166 -49 211 -22 35 20
45 38 106 189 24 61 55 135 69 165 47 104 88 221 102 290 2 8 10 42 18 75 18
67 26 115 42 230 4 28 9 52 10 55 2 3 6 44 10 90 4 47 9 101 11 120 5 40 5
403 0 470 -4 45 -14 143 -22 210 -2 19 -6 60 -9 90 -4 30 -8 62 -10 70 -2 8
-7 33 -10 55 -6 42 -11 72 -20 115 -3 14 -7 34 -9 45 -13 67 -49 204 -76 290
-185 582 -538 1043 -1034 1350 -88 54 -297 162 -401 206 -129 55 -378 133
-515 160 -30 5 -64 12 -75 14 -44 9 -163 27 -205 31 -25 3 -56 7 -70 9 -14 3
-59 7 -100 11 -41 3 -93 8 -115 11 -22 3 -1028 6 -2235 8 -2073 2 -2200 1
-2277 -16z"/>
<path d="M8327 14734 c-1 -1 -51 -4 -112 -8 -60 -3 -119 -8 -130 -10 -11 -2
-45 -7 -75 -11 -30 -3 -71 -11 -90 -15 -19 -5 -51 -12 -70 -15 -266 -45 -755
-235 -1078 -419 -35 -20 -66 -36 -69 -36 -2 0 -31 -18 -63 -40 -32 -22 -61
-40 -64 -40 -10 0 -303 -202 -351 -241 -11 -10 -56 -46 -100 -80 -44 -35 -82
-66 -85 -69 -3 -3 -39 -34 -80 -70 -292 -251 -726 -721 -833 -901 -114 -192
-127 -450 -34 -661 79 -177 231 -321 409 -384 104 -37 278 -51 373 -30 17 3
39 8 50 10 58 12 185 66 230 98 71 51 134 111 204 194 153 181 195 228 336
370 297 300 590 521 915 691 179 93 406 172 576 199 258 41 710 -12 1001 -117
312 -113 558 -287 739 -524 185 -242 331 -656 361 -1025 12 -145 5 -453 -11
-479 -2 -3 -7 -24 -10 -45 -70 -441 -412 -943 -1025 -1505 -52 -47 -102 -93
-111 -101 -9 -8 -63 -58 -120 -110 -58 -52 -114 -104 -126 -115 -11 -11 -56
-51 -98 -90 -43 -38 -95 -86 -115 -105 -21 -19 -80 -73 -131 -120 -51 -47 -98
-90 -104 -95 -6 -6 -67 -62 -136 -124 -69 -63 -147 -135 -175 -161 -27 -26
-104 -96 -170 -155 -66 -60 -125 -114 -131 -120 -6 -5 -36 -32 -65 -59 -30
-28 -81 -75 -114 -105 -33 -31 -103 -95 -155 -143 -52 -47 -107 -97 -121 -110
-14 -12 -67 -61 -119 -108 -51 -47 -105 -96 -120 -110 -36 -33 -217 -199 -249
-228 -14 -13 -42 -38 -61 -56 -60 -55 -263 -240 -304 -277 -21 -18 -52 -47
-70 -64 -26 -25 -150 -139 -281 -258 -16 -15 -43 -40 -60 -55 -16 -15 -79 -72
-140 -127 -60 -55 -117 -107 -125 -115 -16 -16 -75 -70 -240 -220 -57 -52
-134 -122 -170 -155 -208 -190 -277 -254 -311 -285 -21 -19 -57 -53 -81 -74
-319 -288 -350 -322 -413 -459 -106 -230 -92 -489 36 -688 107 -165 271 -282
458 -326 72 -17 247 -18 3586 -16 4771 3 8997 11 9070 17 189 17 252 24 390
46 79 13 111 19 165 31 25 6 54 13 65 15 45 9 64 14 165 43 305 88 605 229
850 400 296 207 586 529 747 831 121 226 250 592 298 845 2 11 7 34 10 50 3
17 8 44 12 60 3 17 7 39 9 50 1 11 7 52 13 90 25 166 35 322 35 560 0 166 -9
375 -18 435 -2 14 -7 52 -10 85 -4 33 -8 71 -11 85 -2 14 -6 43 -10 65 -4 32
-27 143 -50 246 -14 64 -76 253 -112 342 -79 196 -232 475 -324 592 -236 297
-384 439 -626 603 -35 24 -63 46 -63 50 0 4 15 21 33 37 105 97 332 474 422
700 57 144 116 342 141 470 4 22 8 45 9 50 18 82 41 254 51 385 11 147 5 528
-10 606 -2 11 -7 49 -10 85 -4 36 -8 76 -11 90 -2 13 -6 44 -9 69 -3 25 -8 56
-11 70 -3 14 -8 39 -10 55 -6 31 -18 96 -20 105 -1 3 -5 23 -10 45 -5 22 -10
42 -10 45 -116 455 -320 841 -608 1146 -69 73 -202 194 -272 247 -187 142
-398 261 -625 354 -106 44 -287 104 -355 119 -5 1 -28 7 -50 12 -50 14 -176
40 -230 47 -22 4 -47 8 -55 10 -27 7 -132 20 -255 30 -38 4 -86 9 -105 12 -19
3 -1024 7 -2233 8 -2378 3 -2274 5 -2408 -50 -59 -24 -176 -97 -219 -137 -78
-73 -156 -189 -193 -289 -45 -121 -44 34 -43 -4054 l1 -3870 21 -40 c11 -22
36 -50 54 -62 33 -23 36 -23 414 -24 777 -1 857 1 885 14 15 7 36 33 51 62
l25 50 0 3475 0 3475 1710 -1 c1495 0 1876 -4 1958 -20 11 -2 45 -6 76 -10 31
-3 58 -8 61 -9 3 -2 26 -6 50 -10 25 -4 79 -15 120 -26 366 -97 595 -273 730
-563 51 -109 76 -188 105 -331 33 -166 40 -240 40 -465 0 -215 -5 -276 -35
-415 -83 -380 -270 -625 -620 -808 -121 -64 -335 -139 -455 -161 -16 -3 -41
-8 -55 -12 -14 -3 -279 -7 -590 -10 -1301 -9 -1676 -13 -1700 -18 -103 -22
-136 -33 -216 -73 -316 -156 -471 -519 -364 -853 37 -114 127 -255 215 -333
49 -43 145 -103 209 -130 123 -52 165 -55 748 -51 1352 7 1958 8 2023 1 89
-10 171 -23 260 -43 39 -9 78 -17 87 -19 55 -11 273 -91 352 -129 198 -95 369
-235 468 -383 38 -57 104 -184 140 -268 66 -160 106 -427 102 -690 -3 -211
-11 -299 -45 -495 -79 -457 -273 -740 -628 -920 -126 -63 -335 -132 -471 -155
-19 -3 -42 -8 -50 -10 -8 -2 -44 -7 -80 -11 -36 -3 -78 -9 -95 -11 -40 -6
-10537 -11 -10549 -5 -5 3 6 18 24 33 18 16 78 71 133 121 55 51 109 101 121
111 11 10 44 40 71 65 28 26 109 101 180 166 277 255 342 314 476 438 57 53
113 105 125 115 23 20 204 186 238 218 12 11 71 65 131 120 60 55 119 109 131
120 18 17 101 94 234 215 15 14 72 67 127 118 56 51 111 102 124 113 13 11 67
60 119 109 52 48 109 100 125 115 17 15 72 66 123 113 51 47 101 92 111 101
21 19 216 197 244 225 11 10 69 64 131 119 61 56 131 119 155 141 69 63 340
334 401 401 373 408 660 846 814 1245 21 52 41 104 46 115 61 141 148 488 174
695 34 266 26 625 -20 935 -18 126 -58 317 -85 415 -11 41 -24 89 -28 105 -44
172 -208 556 -297 696 -13 21 -24 41 -24 44 0 8 -114 179 -173 260 -118 161
-326 387 -446 483 -25 20 -48 40 -51 43 -14 15 -145 112 -225 166 -231 154
-488 277 -775 371 -100 33 -288 84 -355 97 -22 5 -44 9 -50 11 -62 16 -246 45
-448 69 -67 8 -414 24 -420 19z"/>
<path d="M15885 2905 c-434 -65 -744 -315 -815 -655 -66 -319 41 -595 296
-761 112 -73 366 -171 529 -203 90 -18 418 -103 490 -127 211 -71 310 -163
322 -299 17 -182 -126 -317 -376 -357 -61 -10 -272 -10 -339 0 -225 32 -392
175 -427 365 -6 35 0 32 -96 46 -25 4 -57 9 -70 11 -139 25 -422 64 -429 60
-5 -3 -7 -11 -5 -18 2 -7 6 -43 10 -82 5 -63 9 -90 29 -175 9 -37 47 -129 75
-180 215 -392 722 -577 1351 -494 62 8 236 52 279 71 20 8 41 16 46 17 6 1 39
17 75 35 234 120 383 299 446 536 25 98 26 335 0 420 -67 221 -200 370 -426
478 -80 38 -200 80 -278 98 -26 6 -54 12 -62 14 -8 2 -55 13 -105 25 -49 12
-97 23 -105 25 -255 55 -486 132 -567 186 -68 47 -88 89 -88 189 0 68 5 93 22
125 66 125 206 188 413 188 58 0 128 -3 155 -6 159 -20 275 -96 331 -216 15
-31 32 -67 38 -81 12 -26 24 -29 166 -46 30 -3 62 -7 70 -9 26 -5 93 -14 140
-20 25 -3 54 -7 65 -9 11 -2 50 -7 87 -11 l68 -7 -6 68 c-33 398 -261 649
-694 767 -30 8 -75 18 -100 22 -25 4 -54 9 -65 12 -52 12 -366 10 -450 -2z"/>
<path d="M12554 2832 l-162 -2 4 -353 c1 -193 6 -732 10 -1197 6 -825 11
-1209 13 -1221 2 -10 1491 4 1508 14 4 3 31 8 58 11 71 9 218 52 292 86 225
102 379 283 431 505 36 149 25 343 -28 491 -61 176 -210 319 -402 389 l-58 21
68 39 c151 89 255 233 287 395 17 91 13 258 -9 348 -66 265 -250 410 -591 466
-73 12 -199 14 -675 13 -322 -1 -658 -3 -746 -5z m1188 -480 c112 -22 196 -84
234 -170 12 -25 17 -68 18 -137 1 -90 -2 -106 -27 -157 -43 -88 -113 -137
-229 -161 -41 -8 -178 -14 -395 -16 l-333 -3 -1 279 c0 153 -1 299 -2 325 -2
46 -1 47 28 50 84 8 656 0 707 -10z m114 -1074 c122 -39 189 -94 233 -195 22
-50 25 -73 25 -173 1 -104 -1 -120 -25 -170 -33 -68 -51 -89 -114 -129 -103
-66 -152 -72 -593 -76 -260 -2 -354 0 -357 8 -2 7 -6 177 -7 379 l-3 367 35 3
c19 2 197 3 395 3 302 -1 368 -3 411 -17z"/>
<path d="M7668 2826 c-1 -2 -50 -6 -108 -10 -84 -5 -233 -30 -295 -49 -103
-32 -98 -30 -217 -86 -227 -107 -437 -294 -575 -511 -91 -144 -167 -327 -194
-472 -6 -35 -14 -74 -16 -88 -12 -61 -10 -330 2 -405 14 -86 40 -198 54 -230
5 -11 17 -42 26 -70 73 -211 260 -459 461 -612 152 -116 369 -220 519 -248 22
-5 45 -9 50 -11 97 -24 311 -34 435 -20 426 48 807 287 1034 650 31 49 56 93
56 98 0 4 -19 16 -42 25 -40 16 -274 133 -403 202 -62 33 -85 38 -85 19 -1
-20 -74 -117 -137 -181 -91 -92 -189 -152 -323 -197 -87 -29 -107 -32 -240
-36 -139 -3 -240 17 -355 69 -242 112 -421 343 -471 607 -10 52 -12 208 -3
254 4 23 9 55 12 71 14 86 95 254 159 330 139 165 289 256 494 299 94 20 262
14 357 -13 184 -51 373 -183 458 -321 13 -22 29 -40 34 -40 12 0 185 87 382
192 l133 71 -22 36 c-86 145 -243 312 -394 420 -129 91 -312 176 -454 209
-118 28 -143 32 -221 38 -46 3 -89 7 -96 9 -6 2 -13 2 -15 1z"/>
<path d="M10415 2810 l-160 -5 -102 -230 c-56 -126 -113 -255 -127 -285 -14
-30 -104 -235 -201 -455 -162 -367 -227 -512 -275 -620 -10 -22 -69 -155 -131
-295 -163 -371 -390 -884 -396 -893 -7 -11 545 -4 555 8 5 6 27 50 49 100 23
50 65 140 93 200 29 61 59 126 67 145 38 84 76 160 82 161 9 2 439 6 948 10
243 2 444 1 447 -2 3 -2 38 -79 79 -169 41 -91 84 -187 97 -215 13 -27 40 -88
61 -135 l38 -85 291 0 c161 0 293 2 295 5 2 3 -19 52 -45 110 -169 372 -317
695 -346 758 -19 41 -34 75 -34 76 0 2 -25 56 -55 120 -30 64 -55 118 -55 120
0 2 -17 42 -39 88 -42 89 -179 391 -271 593 -64 142 -277 608 -315 690 -13 28
-39 85 -59 128 -19 42 -41 78 -48 78 -39 4 -305 3 -443 -1z m380 -1027 c108
-252 206 -480 219 -508 13 -27 22 -52 20 -54 -3 -3 -210 -7 -461 -9 -373 -3
-455 -1 -450 10 3 7 78 184 167 393 89 209 189 446 223 528 58 139 62 146 74
123 7 -13 101 -231 208 -483z"/>
</g>
</svg>
